<svg width="178" height="35" viewBox="0 0 178 35" fill="none" xmlns="http://www.w3.org/2000/svg">
<path d="M18.6548 0.288708C18.8074 0.37823 19.0408 0.646796 19.1845 0.790031C19.3371 0.969075 19.4538 1.29135 19.4807 1.49725C19.5435 1.81953 19.4807 2.0881 19.2742 2.67894C19.0408 3.33245 19.0049 3.47569 19.1216 3.77111C19.1845 3.95016 19.3281 4.21872 19.4807 4.3351C19.5974 4.45148 19.8936 4.56786 20.0732 4.60367C20.3963 4.66633 20.522 4.63052 20.6926 4.45148C20.8093 4.36196 20.8991 4.1292 20.8991 4.03968C20.8991 3.9233 21.0158 3.65473 21.1055 3.42198C21.1953 3.21608 21.4018 2.97437 21.6082 2.83113C21.7878 2.71475 22.7663 2.44619 23.7986 2.21343C24.84 2.00753 26.0788 1.73896 26.5815 1.55992C27.0573 1.44354 27.7395 1.32716 28.0358 1.32716C28.332 1.32716 28.718 1.38983 28.8617 1.44354C29.0412 1.53306 29.3375 1.80163 29.4811 1.97172C29.6876 2.15076 29.8671 2.47304 29.894 2.67894C29.921 2.85799 29.921 3.18027 29.894 3.35931C29.8671 3.5115 29.7145 3.88749 29.508 4.1292C29.3554 4.39777 29.2118 4.72004 29.2118 4.87223C29.2118 5.05128 29.3015 5.23032 29.4182 5.3467C29.5349 5.49889 29.7773 5.57945 29.9838 5.57945C30.28 5.57945 30.4596 5.48993 30.6032 5.31089C30.7199 5.19451 30.9892 4.89909 31.1329 4.63052C31.2855 4.42462 31.6086 4.15606 31.7882 4.06653C31.9677 4.00387 32.5333 3.88749 33.036 3.86063C33.5118 3.79797 34.221 3.65473 34.58 3.50255C34.966 3.41302 35.5585 3.3235 35.9176 3.3235C36.2408 3.3235 36.6627 3.38617 36.8333 3.43988C36.9859 3.46674 37.2821 3.67264 37.4257 3.82482C37.6053 3.9412 37.8118 4.20977 37.8746 4.32615C37.9644 4.47833 38.1708 5.09604 38.3773 5.74059C38.6107 6.6 38.6736 6.98495 38.6107 7.33408C38.5838 7.60265 38.4581 7.86226 38.2247 8.10397C38.0721 8.28302 37.7759 8.46206 37.6053 8.48892C37.3988 8.57844 37.0397 8.48892 36.6268 8.33673C36.2408 8.22035 35.8278 8.15769 35.7381 8.18454C35.6483 8.2114 35.5855 8.36359 35.5855 8.54263C35.5855 8.72167 35.6752 8.92758 35.765 9.07081C35.9176 9.223 36.0612 9.45575 36.151 9.6348C36.2408 9.8407 36.3306 10.1988 36.3306 10.5211C36.3306 10.7896 36.2408 11.2283 36.1241 11.4342C36.0343 11.7028 35.5944 12.1772 35.1725 12.5532C34.7865 12.965 34.2569 13.6185 33.9247 14.0572C33.6554 14.5316 32.5871 16.0356 31.5817 17.3695C30.5404 18.7034 29.5619 20.0283 29.4452 20.3237C29.3285 20.5923 29.1489 21.0667 29.0592 21.3264C28.9694 21.6218 28.7899 22.0067 28.7001 22.2126C28.6103 22.3917 28.4667 22.5976 28.341 22.714C28.2512 22.8303 28.0448 22.9825 27.8652 23.072C27.6857 23.1347 27.183 23.2511 26.7072 23.2779C26.0878 23.3406 25.7915 23.457 25.6389 23.5734C25.5222 23.6897 25.4325 23.9852 25.3696 24.3701C25.3068 24.7282 25.1003 25.4354 24.8938 25.9636C24.6874 26.5276 24.3911 27.4407 24.2744 28.1479C24.1577 28.8014 24.0949 29.5087 24.1218 29.7146C24.1487 29.8936 24.3552 30.2786 24.5707 30.5113C24.84 30.7799 25.0464 31.1022 25.1003 31.2185C25.1901 31.3349 25.217 31.7467 25.217 32.1675C25.217 32.7583 25.3068 32.9105 25.4504 33.0806C25.603 33.197 25.7467 33.2596 25.9262 33.197C26.0429 33.1701 26.3391 32.9911 26.5815 32.812C26.788 32.6061 27.174 32.4002 27.3805 32.3376C27.6767 32.248 27.9101 32.248 28.2423 32.3644C28.5116 32.4271 28.8347 32.5703 29.0143 32.6598C29.131 32.7762 29.4003 32.8926 29.5798 32.9284C29.8491 32.9911 29.9928 32.9553 30.1454 32.812C30.298 32.7225 30.5314 32.3376 30.675 32.0153C30.9084 31.693 31.2047 31.3081 31.4201 31.129C31.6266 30.9768 31.8959 30.6546 32.0126 30.4487C32.1921 30.2696 32.3088 29.7683 32.3986 29.3565C32.4615 28.9447 32.4884 28.4075 32.4255 28.1121C32.3986 27.8167 32.2729 27.3691 32.1562 27.1632C31.9228 26.8051 31.7433 26.6887 30.9713 26.3038C30.4416 26.0352 29.903 25.7129 29.8132 25.5608C29.6965 25.4086 29.517 25.0594 29.4542 24.764C29.3644 24.3164 29.3644 24.0836 29.4811 23.6092C29.5709 23.1347 29.7145 22.9288 30.0736 22.6065C30.3698 22.3111 30.6661 22.1052 31.079 22.0157C31.3752 21.9262 31.9408 21.8366 32.3268 21.8366C32.65 21.8366 33.1886 21.9262 33.5118 21.9888C33.808 22.0783 34.221 22.2842 34.4005 22.4364C34.5531 22.5886 34.8134 22.9109 34.9301 23.1168C35.0468 23.4122 35.1097 23.7703 35.1097 24.2358C35.1097 24.6476 35.0468 25.1221 34.9301 25.4444C34.8404 25.7129 34.4544 26.3306 34.1312 26.8051L33.5118 27.6287L33.4489 28.694C33.3861 29.2849 33.2425 30.0279 33.1527 30.3233C33.036 30.6814 32.7936 31.0664 32.3268 31.5319C31.9677 31.8541 31.5278 32.4808 31.2855 32.8299C30.9892 33.4208 30.8097 33.5372 30.1633 33.8952C29.7773 34.128 29.1848 34.4234 28.8886 34.6383C28.5654 34.8173 28.2064 34.9337 27.8203 34.9606C27.2548 34.9874 27.1381 34.9606 25.9801 34.3966C25.0644 33.9848 24.7053 33.7162 24.4988 33.4834C24.3193 33.188 24.2924 32.9821 24.2924 32.3913C24.2924 31.8004 24.2295 31.6214 24.0231 31.326C23.8705 31.1469 23.6101 30.7978 23.4575 30.5829C23.2241 30.3144 23.1613 30.0548 23.1343 29.634C23.1074 29.2759 23.1613 28.5687 23.251 28.0405C23.3408 27.4765 23.5203 26.7693 23.6371 26.4112C23.7268 26.1158 23.9333 25.5249 24.1128 25.1131C24.2654 24.7282 24.3821 24.2537 24.3821 24.021C24.3821 23.7882 24.3193 23.2511 24.2026 22.8661C24.1128 22.3917 24.0859 21.8904 24.1128 21.5681C24.1398 21.2727 24.2654 20.8608 24.3193 20.6549C24.4091 20.4759 24.7682 20.0014 25.0644 19.6165C25.3876 19.2942 25.9531 18.4617 26.2763 17.8171C26.6623 17.1994 27.3176 16.1341 27.7844 15.5074C28.2333 14.8539 28.7899 13.9677 29.0592 13.5559C29.2926 13.0814 29.8043 12.4637 30.1274 12.1056C30.4506 11.7833 30.7828 11.3626 30.8995 11.1925C30.9892 11.0403 31.1329 10.6285 31.2226 10.3689C31.3393 10.0466 31.5189 9.62585 31.6356 9.45576C31.7523 9.30357 32.0216 9.04395 32.2909 8.92758C32.5243 8.83805 32.9462 8.74853 33.2066 8.74853C33.4669 8.74853 33.8619 8.65901 34.0683 8.56949C34.3377 8.4173 34.4544 8.27407 34.598 7.91598C34.7147 7.62055 34.8314 7.35199 34.8942 7.26247C34.984 7.17295 35.2174 7.08342 35.3969 7.05657C35.6303 6.9939 35.9266 7.05657 36.3485 7.26247C36.6717 7.41465 37.0308 7.53103 37.1744 7.53103C37.2642 7.53103 37.4078 7.41465 37.4976 7.29828C37.6502 7.02971 37.6502 6.94019 37.345 5.88383C37.0756 4.99756 36.932 4.67528 36.6896 4.46938C36.4832 4.29034 36.2408 4.20082 36.0074 4.20082C35.774 4.20082 35.2623 4.29034 34.8224 4.40672C34.3736 4.5231 33.6105 4.67528 33.0719 4.729C32.5063 4.81852 32.0036 4.96175 31.9139 5.05128C31.8241 5.1408 31.6176 5.43622 31.465 5.70479C31.2855 5.93754 31.079 6.47467 31.0162 6.85962C30.9264 7.21771 30.7199 7.71903 30.6301 7.95179C30.5134 8.13083 30.2711 8.42625 30.0646 8.54263C29.8581 8.69482 29.499 8.77539 29.1759 8.8112C28.7629 8.83805 28.4308 8.8112 27.9011 8.63215C27.3356 8.45311 27.156 8.42625 26.9226 8.54263C26.8059 8.6053 26.6892 8.72167 26.6892 8.83805C26.6892 8.92758 26.779 9.223 26.8957 9.45576C27.0124 9.68851 27.1291 10.0466 27.1291 10.2256C27.1291 10.4584 27.0124 10.727 26.8957 10.906C26.8059 11.1119 26.4199 11.4073 26.0968 11.649C25.7377 11.8549 25.4145 12.1235 25.3247 12.1772C25.2619 12.2936 25.0285 12.7412 24.8759 13.2157C24.7233 13.717 24.427 14.3078 24.2834 14.5496C24.1308 14.8181 23.6909 15.3463 23.278 15.7312C22.7753 16.2952 22.5059 16.6444 22.4162 16.9398C22.3533 17.2084 22.2366 17.5575 22.1469 17.8261C22.0302 18.0946 21.7878 18.39 21.3479 18.7392C20.9888 19.0615 20.6028 19.4464 20.522 19.6881C20.4053 19.8672 20.0732 20.2521 19.8398 20.5744C19.5705 20.8698 19.3101 21.2279 19.2473 21.3443C19.1575 21.4965 19.1306 21.8724 19.1845 22.6423C19.2473 23.3496 19.2114 23.9135 19.1216 24.3612C19.0588 24.7192 18.8523 25.1848 18.6728 25.4533C18.4663 25.7756 18.2239 25.9815 17.784 26.1964C17.2544 26.4023 17.012 26.4291 16.24 26.4291C15.5308 26.4291 15.1987 26.3664 14.7857 26.2232C14.4625 26.071 14.0765 25.7756 13.8341 25.5697C13.6546 25.3638 13.4212 24.952 13.3045 24.7103C13.2147 24.4417 13.1519 23.9135 13.1519 23.5286C13.1519 23.0541 13.2147 22.6692 13.3314 22.4096C13.484 22.2037 13.6546 21.9351 13.7444 21.8456C13.8611 21.7561 14.1304 21.6128 14.3638 21.4875C14.5433 21.398 14.9832 21.3353 15.3154 21.3353C15.6116 21.3622 16.1412 21.398 16.5273 21.4875C16.8504 21.6039 17.2993 21.6665 17.4429 21.6665C17.6224 21.6665 17.8289 21.577 18.0085 21.3711C18.1611 21.2189 18.4573 20.8698 18.6279 20.6012C18.8343 20.3327 19.2204 19.7418 19.5166 19.33C19.8128 18.9182 20.2886 18.3811 20.5579 18.1752C20.7913 17.9693 21.1235 17.647 21.1773 17.468C21.2671 17.3158 21.3838 16.904 21.5005 16.6086C21.6531 16.1072 21.7968 15.8655 22.4521 15.1941C22.9009 14.7823 23.3677 14.1915 23.5203 13.896C23.6371 13.6633 23.8794 13.0993 24.0231 12.6517C24.2026 12.0877 24.3821 11.8281 24.7053 11.4969C24.9387 11.291 25.3247 10.9955 25.5671 10.8165C25.9801 10.5837 26.0429 10.5211 26.0429 10.1988C26.0429 9.99289 25.9531 9.69746 25.8633 9.51842C25.7466 9.33938 25.6569 8.99024 25.6569 8.77539C25.6569 8.56054 25.7736 8.15769 25.9262 7.88912C26.0429 7.5937 26.2224 6.976 26.2853 6.50153C26.402 6.05392 26.5815 5.52574 26.6713 5.29298C26.788 5.08708 26.9945 4.81852 27.174 4.70214C27.3266 4.58576 27.7036 4.34405 27.9729 4.20082C28.359 3.96806 28.5654 3.75321 28.6821 3.43093C28.8617 3.10865 28.8617 2.95646 28.7719 2.6879C28.7091 2.53571 28.5654 2.36562 28.4128 2.30295C28.2333 2.21343 28.0537 2.15076 27.9101 2.15076C27.7934 2.15076 27.2009 2.30295 26.5725 2.47304C25.9531 2.62523 24.8489 2.85799 24.1757 3.03703C23.4665 3.15341 22.7214 3.33245 22.488 3.39512C22.2815 3.42198 22.0122 3.60102 21.9224 3.7174C21.8327 3.83378 21.716 4.19186 21.6531 4.42462C21.5903 4.72004 21.3569 5.28403 21.1504 5.69583C20.8811 6.19716 20.6477 6.51944 20.4053 6.69848C20.2258 6.81486 19.8128 6.93124 19.5435 6.96704C19.2742 6.9939 18.8882 7.05657 18.7446 7.11923C18.6009 7.1819 18.4214 7.35199 18.3586 7.50418C18.2688 7.65636 18.2688 7.95179 18.2957 8.18454C18.3586 8.4173 18.3586 8.77539 18.2957 8.92758C18.2329 9.16033 17.9726 9.54528 17.4968 9.99289C16.9043 10.5837 16.7247 10.8523 16.4285 11.5595C16.249 12.034 16.0156 12.598 15.8989 12.7681C15.7822 13.0008 15.45 13.4216 15.1538 13.8065C14.8575 14.1646 14.4087 14.845 14.1483 15.2836C13.8252 15.8745 13.493 16.3489 13.0531 16.7876C12.6043 17.1994 12.3081 17.6112 12.1375 17.9961L11.6886 18.9093C11.5989 19.1152 11.2757 19.4106 11.0333 19.5896C10.7371 19.7687 10.4139 20.0372 10.2882 20.1536C10.0189 20.3864 10.0189 20.449 10.1087 21.1563C10.1715 21.5681 10.1985 22.2753 10.1985 22.6961C10.1985 23.1437 10.1356 23.6987 10.0458 23.8777C9.98301 24.1105 9.7496 24.4059 9.5162 24.585C9.33666 24.764 8.83395 25.0594 8.47487 25.2027C7.88238 25.4712 7.61307 25.5249 6.99366 25.5249C6.46402 25.5249 6.16777 25.4623 5.83562 25.319C5.60222 25.1669 5.30598 24.961 5.12644 24.8177C4.97383 24.6655 4.74043 24.3164 4.5968 24.0478C4.44419 23.6629 4.39032 23.3048 4.39032 22.7766C4.39032 22.2753 4.45316 21.8635 4.56986 21.5681C4.68656 21.3353 4.89304 21.0399 5.07258 20.9146C5.22519 20.7355 5.57529 20.5923 5.81767 20.5296C6.08698 20.467 6.52685 20.4401 6.8231 20.467L7.94522 20.5833C8.2684 20.6102 8.62748 20.6102 8.74418 20.5565C8.86088 20.4938 9.10326 20.1715 9.24689 19.903C9.45336 19.5807 9.72267 19.3121 9.99198 19.1599C10.2613 19.0436 10.5575 18.8018 10.6473 18.6855C10.764 18.5691 11.0064 18.1573 11.1231 17.7992C11.3026 17.2979 11.5719 16.9756 12.1644 16.3489C12.6941 15.785 13.0531 15.3463 13.3225 14.7555C13.5918 14.281 13.9419 13.717 14.1842 13.4842C14.4177 13.1888 14.7139 12.8665 14.8396 12.6875C14.9563 12.5085 15.1987 12.034 15.4051 11.6222C15.5847 11.1746 15.7911 10.6195 15.9348 10.4136C16.0515 10.1809 16.4106 9.73327 16.7337 9.41099C17.2634 8.90967 17.3262 8.75748 17.3262 8.4352C17.3262 8.16664 17.2095 7.8175 16.9133 7.36989C16.5901 6.80591 16.5273 6.54629 16.5003 5.91964C16.4375 5.44517 16.5003 5.03337 16.617 4.62157C16.7337 4.20977 16.9133 3.91435 17.416 3.41302C17.7751 3.05494 18.1252 2.61628 18.2149 2.41038C18.2778 2.20448 18.3675 1.90906 18.3675 1.73001C18.3675 1.46145 18.2778 1.2824 18.1611 1.16602C18.0085 0.986979 17.802 0.933266 17.5417 0.933266C17.3352 0.933266 16.9222 1.04964 16.6799 1.16602C16.2669 1.34507 15.9078 1.39878 14.7498 1.43459C13.9508 1.49725 13.2058 1.55097 13.0891 1.58678C12.9724 1.6763 12.5863 1.8822 12.2273 2.11496C11.8682 2.34771 11.2757 2.64314 10.9525 2.76847C10.5934 2.92065 10.2074 3.09074 10.0638 3.21608C9.9471 3.33245 9.74063 3.66369 9.58802 3.9233C9.43541 4.21872 9.17507 4.57681 8.9686 4.72004C8.76213 4.92594 8.43896 5.16765 8.19658 5.31089C7.99011 5.48993 7.66693 5.83907 7.45149 6.19716C7.24502 6.49258 6.859 6.96704 6.6256 7.1998C6.26652 7.55789 6.12289 7.90703 5.94335 8.49787C5.70995 9.11557 5.55734 9.35728 5.11746 9.83175C4.82122 10.1272 4.49805 10.539 4.40828 10.6912C4.31851 10.8433 4.20181 11.282 4.11204 11.6043C4.0492 11.9266 3.78886 12.5532 3.58239 12.965C3.34899 13.3768 3.05275 14.1198 2.90014 14.5585C2.74753 15.0598 2.42436 16.152 2.21789 17.0383L1.7421 18.6676L1.97551 19.5807C2.20891 20.3774 2.20891 20.5833 2.09221 20.9683C2.02937 21.201 1.88574 21.6755 1.73313 21.9709C1.49972 22.4722 1.43688 22.7677 1.43688 23.448C1.43688 24.2179 1.46382 24.3612 1.88574 25.1669C2.18198 25.8204 2.33459 26.2859 2.38845 26.7962C2.41538 27.1542 2.50515 27.566 2.56799 27.7451C2.65776 27.8973 2.86423 28.0674 3.01684 28.13C3.19638 28.2196 3.76193 28.3628 4.26465 28.4255C5.0636 28.5418 5.24314 28.515 5.74585 28.3986C6.06903 28.2822 6.42811 28.1032 6.60765 27.951C6.76026 27.8346 7.02059 27.4497 7.26297 27.1811C7.44251 26.8588 7.79261 26.5007 7.97215 26.3217C8.17863 26.1426 8.71725 25.8204 9.15712 25.6145C9.81244 25.3459 10.0728 25.2564 10.5216 25.2564C10.8179 25.2564 11.2308 25.319 11.4104 25.4086C11.6168 25.4981 11.8861 25.7308 12.0657 25.9367C12.2721 26.1158 12.4786 26.5276 12.5684 26.823C12.6582 27.1184 12.721 27.6198 12.721 28.0047C12.721 28.3896 12.6582 28.891 12.5684 29.1864C12.4786 29.455 12.2991 29.8041 12.0657 29.9831C11.8861 30.1622 11.6168 30.3681 11.4463 30.4307C11.2937 30.5203 10.9166 30.5829 10.5575 30.5829C10.1446 30.5561 9.81244 30.4934 9.55211 30.377C9.34564 30.2875 8.86986 29.9921 8.54668 29.7235C8.16067 29.4281 7.63103 29.1953 7.38865 29.1058C7.00264 29.0163 6.859 29.0432 6.20368 29.2222C5.79074 29.3386 5.22519 29.4281 4.92894 29.4281C4.60577 29.4281 4.06715 29.3654 3.62728 29.2759C3.17843 29.1864 2.71162 29.07 2.55901 28.9805C2.4064 28.891 2.14607 28.7119 2.02937 28.5955C1.91267 28.4792 1.73313 28.1837 1.67029 28.0047C1.58052 27.8257 1.46382 27.3512 1.40098 26.9662C1.37405 26.5813 1.22144 26.0531 0.988034 25.5787C0.781562 25.1669 0.575091 24.576 0.512252 24.3074C0.449413 24.0389 0.422482 23.5376 0.449413 23.1258C0.512252 22.5976 0.476344 22.3559 0.242941 21.6755C0.0364699 21.1473 -0.0263693 20.7266 0.00953879 20.467C0.0364698 20.1984 0.189079 19.7597 0.395551 19.4285C0.575091 19.1062 0.808493 18.4527 0.961103 17.9782C1.0778 17.5038 1.34711 16.4116 1.61643 15.5253C1.88574 14.5496 2.29868 13.4842 2.56799 12.8934C2.86423 12.3652 3.13354 11.5953 3.22331 11.2104C3.31308 10.8254 3.49262 10.4136 3.58239 10.2077C3.67216 10.0556 3.9684 9.64375 4.29158 9.32147C4.74043 8.87386 4.91099 8.61425 5.03667 8.13978C5.12644 7.8175 5.33291 7.43256 5.39575 7.28037C5.48552 7.10133 5.75483 6.77905 6.01516 6.48363C6.24857 6.25087 6.60765 5.83012 6.76026 5.5705C6.91287 5.30194 7.23604 4.9528 7.44251 4.77376C7.64898 4.56786 8.00806 4.32615 8.21453 4.18291C8.39407 4.00387 8.71725 3.61892 8.92372 3.23398C9.15712 2.78637 9.3995 2.49095 9.60597 2.37457C9.83937 2.22238 10.3152 2.01648 10.6473 1.9001C11.0064 1.78372 11.5091 1.4883 11.8053 1.30926C12.0747 1.10336 12.5504 0.834792 12.8736 0.718414C13.2596 0.53937 13.5828 0.512513 14.6241 0.485656C15.6296 0.485656 16.0425 0.422991 16.4285 0.252899C16.7517 0.163378 17.0838 0.046999 17.2544 0.0201424C17.407 -0.00671415 17.6673 -0.00671415 17.8738 0.0201424C18.0803 0.046999 18.4035 0.136521 18.583 0.226043L18.6548 0.288708Z" fill="#B9D9EB"/>
<path d="M64.6081 0.637864C64.8415 0.700529 65.1378 0.870621 65.3532 1.04966C65.5058 1.22871 65.7123 1.49727 65.7662 1.66737C65.8829 1.87327 65.9726 2.28507 65.9996 2.6163C66.0265 3.06391 65.9996 3.38619 65.8829 3.77113C65.82 4.06655 65.6136 4.42464 65.5238 4.56788C65.4071 4.72006 65.1108 4.92596 64.9044 5.04234C64.5812 5.22139 64.3119 5.24824 63.5399 5.24824C62.714 5.22139 62.5345 5.24824 62.328 5.42729C62.1754 5.54367 62.0048 5.78537 61.942 6.01813C61.915 6.25089 61.8253 6.54631 61.7624 6.67164C61.6996 6.85069 61.4033 7.26249 61.1071 7.7101C60.8378 8.15771 60.1555 9.21406 59.6887 10.0735C59.186 10.8971 58.5038 12.0251 58.1178 12.4995C57.7946 13.0008 57.2919 13.7976 57.0495 14.3347C56.8161 14.836 56.3672 15.6059 56.0979 16.0804C55.8645 16.4922 55.3259 17.2352 54.9399 17.7366C54.4372 18.3901 54.1679 18.8914 53.8716 19.5718C53.6023 20.2521 53.4228 20.6371 53.0996 20.9056C52.8931 21.1742 52.534 21.3801 52.3276 21.4338C52.1211 21.4965 51.6453 21.5233 51.2862 21.5233C50.9631 21.5233 50.5142 21.586 50.3347 21.7024C50.1282 21.765 49.9217 21.9351 49.832 22.0873C49.7422 22.2664 49.5357 22.4991 49.3831 22.6513C49.2664 22.7677 48.8535 23.0363 48.4944 23.1526C48.1084 23.3048 47.5428 23.6002 47.2197 23.8061C46.8606 24.012 46.3938 24.3075 46.1514 24.4238C45.8821 24.5402 45.4422 24.6924 45.146 24.7819C44.8767 24.8446 44.4009 25.0505 44.1675 25.1937C43.8712 25.3996 43.4852 25.6413 43.2518 25.7577C42.9825 25.8741 42.6324 25.9905 42.2733 25.9905C41.8245 25.9905 41.5641 25.8741 40.819 25.5787C40.3433 25.3728 39.7777 25.1669 39.5712 25.1042C39.3917 25.0774 39.1224 24.9878 38.9518 24.8983C38.7992 24.8356 38.5927 24.6297 38.503 24.4507C38.3504 24.2179 38.2965 23.9494 38.2965 23.4481C38.2965 22.9467 38.2696 22.6782 38.117 22.5349C37.9643 22.3559 37.8207 22.329 37.0487 22.2664C36.5729 22.2037 36.0971 22.1142 35.9804 22.0605C35.8637 21.9978 35.6573 21.8546 35.5316 21.7024C35.379 21.5233 35.2084 21.2548 35.1456 21.0847C35.0827 20.8788 35.0289 20.467 35.0289 20.082C35.0289 19.6971 35.1186 19.2226 35.2084 18.9003C35.361 18.6049 35.6213 17.9514 35.8637 17.4501C36.1869 16.8861 36.4831 16.4474 36.7794 16.2057C36.9859 15.973 37.3719 15.7581 37.5783 15.7044C37.8117 15.6417 38.3234 15.5522 38.7902 15.4985C39.2391 15.4358 39.8316 15.2926 40.065 15.2031C40.3612 15.0867 40.837 14.9703 41.1871 14.9077C41.6 14.8808 41.8694 14.7286 41.986 14.5854C42.1387 14.469 42.3451 14.0572 42.4888 13.6991C42.6414 13.2246 42.8748 12.8755 43.0543 12.7233C43.2069 12.6069 43.5301 12.4279 43.7635 12.3652C43.9969 12.2757 44.4458 12.2757 44.7689 12.2757C45.0921 12.3384 45.541 12.4548 45.7474 12.5443C45.9808 12.6607 46.2232 12.8128 46.313 12.9561C46.4027 13.0456 46.6092 13.3142 46.7259 13.6096C46.8785 13.9945 46.9324 14.29 46.9324 14.9703C46.9324 15.7134 46.8696 15.9193 46.6631 16.3848C46.5464 16.7071 46.2771 17.0025 46.1334 17.1278C45.9808 17.2173 45.6846 17.3964 45.514 17.4501C45.3345 17.5128 45.0113 17.5396 44.8318 17.5396C44.6253 17.5396 44.2124 17.4769 43.9161 17.3874C43.6199 17.3248 43.171 17.1189 42.9376 17.0025C42.6683 16.8861 42.2284 16.5549 41.8963 16.3221C41.4474 15.9998 41.241 15.8745 41.0076 15.8745C40.7113 15.8745 40.6485 15.9372 40.5587 16.1431C40.4959 16.3221 40.5318 16.6175 40.7113 17.3516C40.9178 18.032 40.9806 18.3901 40.9178 18.7661C40.8909 19.0346 40.6844 19.8314 40.4689 20.4849C40.2625 21.1652 40.0201 21.8456 39.9034 22.0247C39.8136 22.2037 39.6341 22.526 39.4904 22.705C39.3468 22.8841 39.2211 23.2063 39.1942 23.4122C39.1673 23.7345 39.1942 23.8867 39.3109 24.0031C39.4007 24.1195 39.6341 24.1821 39.8405 24.1821C40.0739 24.1821 40.3433 24.0658 40.7562 23.7345C41.0794 23.5286 41.5552 23.2601 41.7616 23.2063C41.9681 23.1437 42.3541 23.1168 42.5875 23.1437C42.8568 23.1705 43.3865 23.3496 43.7994 23.5555C44.2483 23.7345 44.6881 23.8778 44.7779 23.8778C44.8677 23.8778 45.137 23.8151 45.3704 23.7614C45.5769 23.6719 46.1424 23.3764 46.5823 23.1079C46.9952 22.8124 47.6236 22.4902 48.0007 22.3648C48.3867 22.1858 48.7098 21.9799 48.8265 21.8635C49.033 21.6308 49.0599 21.5054 48.9791 20.7445C48.9522 20.27 48.8894 19.706 48.9522 19.4464C48.9522 19.2137 49.042 18.8287 49.1048 18.6228C49.1946 18.3901 49.4908 18.032 49.9038 17.6739C50.4334 17.1726 50.613 16.9667 50.9451 16.2863C51.1516 15.8118 51.5645 15.0778 51.8608 14.6033C52.157 14.1288 52.6867 13.3052 53.0188 12.7144L54.1409 10.7001C54.4102 10.1988 54.8232 9.51844 55.0027 9.22302C55.2092 8.83807 55.5324 8.42627 55.9184 8.13085C56.2416 7.86228 56.6006 7.51315 56.7173 7.27144C56.834 7.0924 56.9507 6.79697 56.9507 6.59107C56.9507 6.41203 56.8879 6.20613 56.834 6.14346C56.7443 6.05394 56.6006 5.99128 56.448 5.99128C56.2954 5.99128 55.9722 6.10765 55.7029 6.22403C55.3169 6.37622 55.2002 6.40308 54.8411 6.31355C54.6616 6.25089 54.3654 6.04499 54.2217 5.86594C54.105 5.71376 53.8088 5.2751 53.6292 4.95282C53.4228 4.47835 53.1265 4.12922 52.7136 3.77113C52.2109 3.35933 52.0942 3.18029 51.9416 2.73268C51.8518 2.46411 51.7082 2.14183 51.6184 2.02545C51.4658 1.93593 51.2324 1.87327 51.0259 1.87327C50.8464 1.87327 50.4963 1.96279 50.2539 2.07917C49.9307 2.23135 49.6614 2.28507 49.042 2.28507C48.5662 2.28507 47.9737 2.37459 47.7403 2.43725C47.4441 2.52678 46.9952 2.58944 46.699 2.58944C46.286 2.58944 46.1334 2.65211 45.9898 2.76849C45.8731 2.88486 45.7564 3.03705 45.7564 3.12657C45.7564 3.18924 45.909 3.51152 45.9898 3.86961C46.1065 4.25455 46.1963 4.72902 46.1963 5.14082C46.1963 5.61528 46.1334 5.93756 45.9 6.52841C45.7205 6.94021 45.4871 7.47734 45.3704 7.7101C45.2806 7.916 44.9574 8.3278 44.751 8.59636C44.4278 8.91864 44.3021 9.12454 44.3021 9.36625C44.3021 9.5453 44.3291 9.72434 44.3919 9.84072C44.4547 9.90338 44.6612 9.9571 44.8407 9.9571C45.0472 9.9571 45.3435 9.84072 45.7025 9.59901C46.1783 9.30359 46.2681 9.30359 47.0401 9.30359C47.7493 9.30359 47.9019 9.27673 48.0186 9.09769C48.0814 9.00817 48.1712 8.62322 48.1982 8.23828C48.2251 7.85333 48.3777 7.37887 48.4944 7.14611C48.5842 6.94021 48.9971 6.46574 49.3562 6.10765C49.7422 5.72271 50.2718 5.31091 50.5681 5.19453C50.8643 5.04234 51.3132 4.92596 51.6094 4.87225C51.9954 4.80959 52.2288 4.87225 52.4981 4.98863C52.7675 5.10501 53.0278 5.34672 53.3599 5.75852C53.5933 6.11661 53.8626 6.52841 53.9793 6.67164C54.0691 6.9044 54.132 7.23563 54.132 7.62057C54.132 7.916 54.105 8.39046 54.0153 8.62322C53.9883 8.82912 53.7819 9.1514 53.6562 9.33044C53.5036 9.48263 53.2432 9.68853 53.0637 9.77805C52.8842 9.89443 52.534 9.9571 52.148 9.9571C51.7351 9.9571 51.376 9.89443 51.1965 9.77805C51.0439 9.68853 50.6668 9.45577 50.3975 9.21406C50.0384 8.85598 49.832 8.7396 49.6255 8.7396C49.446 8.7396 49.2395 8.76646 49.1766 8.82912C49.1138 8.85598 48.9971 9.09769 48.9073 9.41997C48.8176 9.65272 48.6739 9.98395 48.5213 10.0735C48.4046 10.163 48.0455 10.1899 47.4261 10.1899C46.6002 10.1899 46.4746 10.2167 45.8551 10.5479C45.4422 10.7538 45.0293 10.8702 44.8138 10.8702C44.6343 10.8702 44.3111 10.8076 44.1316 10.718C43.9251 10.6285 43.6827 10.4495 43.6019 10.3062C43.5211 10.163 43.3954 9.77805 43.3685 9.48263C43.3057 9.12454 43.2159 8.80226 43.1351 8.71274C43.0453 8.59636 42.8658 8.5337 42.4529 8.5337C42.1566 8.5337 41.7078 8.47103 41.5013 8.41732C41.2679 8.39046 40.9986 8.23828 40.8819 8.1219C40.7293 8.03238 40.5856 7.82648 40.5587 7.73695C40.4959 7.64743 40.4061 7.37887 40.3792 7.11925C40.3163 6.85069 40.3163 6.43889 40.3792 6.17032C40.442 5.8749 40.7023 5.16767 41.0345 4.57683C41.3038 3.95913 41.7167 3.27876 41.9232 3.07286C42.1297 2.8401 42.4529 2.59839 42.6683 2.50887C42.9376 2.39249 43.6199 2.21345 44.2393 2.09707C44.8587 2.00755 45.541 1.86431 45.7205 1.82851C45.9 1.76584 46.2501 1.71213 46.5194 1.71213C46.7528 1.71213 47.2017 1.6226 47.4351 1.55994C47.7313 1.47042 48.1443 1.29137 48.4405 1.08547C48.7098 0.933286 49.0959 0.790051 49.3023 0.763194C49.5088 0.736338 50.1641 0.790051 50.6938 0.852716C51.2593 0.942238 51.8518 1.08547 51.9954 1.175C52.175 1.26452 52.3545 1.40775 52.4443 1.53308C52.534 1.64946 52.6507 1.98069 52.7675 2.27611C52.9201 2.66106 53.0637 2.86696 53.5125 3.27876C53.9614 3.63685 54.1679 3.93227 54.3384 4.37093C54.491 4.69321 54.7244 5.07815 54.8411 5.19453C54.9309 5.31091 55.1105 5.40043 55.2541 5.40043C55.3439 5.40043 55.5773 5.33777 55.7299 5.22139C55.9094 5.13186 56.1787 4.8633 56.3493 4.56788C56.5288 4.33512 56.8251 4.00389 56.9687 3.88751C57.2021 3.77113 57.6779 3.56523 58.0639 3.50257C58.4768 3.41304 58.8628 3.29666 59.0424 3.20714C59.1322 3.14448 59.3656 2.79534 59.5451 2.46411C59.7246 2.10602 59.9311 1.75689 60.0478 1.6047C60.2004 1.48832 60.4338 1.30928 60.6134 1.21976C60.8198 1.13023 61.2956 0.924334 61.7086 0.807955C62.1215 0.691577 62.714 0.575198 62.9833 0.539389C63.3065 0.512533 63.6656 0.449867 63.8092 0.512533L64.5543 0.628911L64.6081 0.637864Z" fill="#B9D9EB"/>
<path d="M61.9779 20.1536C62.0946 19.9209 62.337 19.5001 62.5075 19.33C62.7768 19.1241 63.1 18.8824 63.3962 18.8019C63.6656 18.7123 64.285 18.596 64.8146 18.5333C65.3443 18.4706 66.0893 18.4438 66.5382 18.4706C66.9242 18.4975 67.4 18.587 67.5795 18.6765C67.7591 18.7392 67.9925 18.9451 68.1092 19.1241C68.2618 19.2405 68.4323 19.5091 68.4952 19.715C68.558 19.9209 68.6119 20.2432 68.6119 20.458C68.6119 20.6908 68.5221 21.0757 68.4323 21.2816C68.3156 21.5502 68.0463 21.8456 67.7232 22.1052C67.3641 22.338 67.014 22.7587 66.6549 23.3496C66.2689 23.8778 66.0893 24.3254 66.0893 24.5044C66.0893 24.7103 66.1522 24.8625 66.2689 24.952C66.3587 25.0147 66.5651 25.0684 66.6818 25.0684C66.7985 25.0684 67.2115 24.952 67.5975 24.7998C67.9566 24.6476 68.6927 24.4149 69.2582 24.2985C69.7879 24.1821 70.5958 23.9762 71.0357 23.824C71.4845 23.7077 71.9513 23.5286 72.104 23.4391C72.2206 23.3496 72.3733 23.1168 72.463 22.9646C72.5528 22.6692 72.5528 22.4633 72.463 21.7561C72.3733 21.0131 72.4002 20.7803 72.5259 20.3416C72.6156 19.9567 72.8849 19.518 73.2351 19.0973C73.5313 18.7123 73.8545 18.211 73.9801 17.9783C74.0699 17.7097 74.4829 16.707 74.9317 15.7044C75.4075 14.7555 76.0897 13.2784 76.4758 12.4816C77.1311 11.1835 77.2478 11.0045 77.8941 10.3868C78.2801 10.0019 78.8098 9.41101 79.106 9.08873C79.519 8.56055 79.6985 8.38151 80.4436 8.05027C80.9463 7.78171 81.5388 7.43257 81.835 7.13715C82.1941 6.84173 82.4904 6.63583 82.8764 6.51945C83.1457 6.42993 83.6215 6.19717 83.9177 5.99127C84.187 5.78537 84.6897 5.46309 85.0129 5.24824C85.3361 5.09605 85.8119 4.89015 86.0542 4.83644C86.2876 4.74691 86.7993 4.68425 87.1494 4.74691C87.6252 4.77377 87.9484 4.86329 88.4511 5.06919C88.9538 5.36462 89.1603 5.54366 89.3129 5.81222C89.5194 6.10765 89.5822 6.37621 89.5822 6.81487C89.5822 7.17296 89.4924 7.5579 89.3757 7.79066C89.259 8.05923 89.0526 8.29198 88.8999 8.40836C88.7204 8.56055 88.3972 8.67693 88.101 8.73064C87.8676 8.7933 87.4816 8.82016 87.302 8.79331C87.0956 8.73064 86.7365 8.61426 86.5569 8.52474C86.2607 8.3457 86.0812 8.16665 85.9375 7.78171L85.5785 7.01182C85.5156 6.89544 85.372 6.68954 85.2194 6.60002C85.0129 6.44783 84.8962 6.44783 84.7167 6.53735C84.564 6.62687 84.2678 6.77011 84.0972 6.94915C83.9177 7.10134 83.5317 7.27143 83.3252 7.3341C83.0918 7.39676 82.8225 7.54 82.7327 7.65638C82.5263 7.86228 82.5263 7.88913 82.7327 8.30989C82.8225 8.57845 82.9661 9.01711 83.0559 9.34834C83.1726 9.82281 83.1726 9.96604 83.0828 10.3241C82.9931 10.5927 82.7597 11.0045 82.2839 11.4432C81.7542 12.0071 81.5747 12.3026 81.3952 12.8576C81.2426 13.2157 80.8296 14.2452 80.4436 15.1046C80.0307 15.9909 79.5279 17.083 79.2856 17.5575C79.0432 18.032 78.6033 18.7661 78.2801 19.2137C77.8941 19.715 77.571 20.3058 77.3645 20.8071C77.2119 21.2816 76.9515 21.8456 76.8348 22.0515C76.6822 22.3201 76.4219 22.5797 76.1256 22.7945C75.8025 22.9736 75.5062 23.0273 74.7342 23.09C74.1687 23.1526 73.666 23.2063 73.5492 23.269C73.4595 23.3585 73.1902 23.5644 72.9837 23.7703C72.7772 24.0389 72.3643 24.2985 72.068 24.4507C71.7449 24.6297 70.9459 24.8625 70.2637 25.0147C69.5186 25.1669 68.6029 25.4623 68.1271 25.6055C67.6514 25.7488 67.0858 25.9278 66.8255 25.9636C66.5921 25.9905 66.206 25.9636 65.9996 25.9009C65.7931 25.8383 65.5507 25.6324 65.434 25.4891C65.3443 25.337 65.2276 24.961 65.1647 24.6655C65.1378 24.3075 65.048 24.012 64.9313 23.8957C64.8146 23.7793 64.5184 23.7166 63.9797 23.6898C63.5309 23.6271 63.0282 23.5376 62.8576 23.4839C62.6781 23.3943 62.4716 23.1884 62.328 23.0094C62.1754 22.8572 62.0048 22.5349 61.942 22.329C61.915 22.15 61.8522 21.6755 61.8522 21.3264C61.8522 20.9772 61.915 20.467 62.0048 20.1715L61.9779 20.1536ZM97.7872 0.4051C97.9937 0.494622 98.3528 0.727379 98.4964 0.933279C98.64 1.13918 98.8824 1.49727 98.9093 1.75688C98.9722 1.96278 99.026 2.4641 99.026 2.79534C99.026 3.15342 98.9632 3.6816 98.8734 3.95017C98.7567 4.30826 98.5772 4.60368 98.3438 4.86329C98.0745 5.09605 97.8141 5.24824 97.4281 5.36462C97.0421 5.45414 96.7728 5.45414 96.3868 5.36462C95.911 5.24824 95.7943 5.15872 95.4711 4.80063C95.2647 4.53206 94.9684 4.23664 94.8517 4.12026C94.735 3.94122 94.5555 3.85169 94.349 3.85169C94.1964 3.85169 94.0528 3.87855 93.9899 3.94122C93.963 3.96807 93.9001 4.2635 93.8373 4.55892C93.7475 4.85434 93.6578 5.14976 93.568 5.23928C93.4782 5.35566 93.2448 5.50785 93.0024 5.53471C92.7331 5.62423 92.41 5.59737 91.611 5.44519C91.0185 5.32881 90.3991 5.14976 90.1926 5.0871C89.9592 5.02443 89.5373 4.81853 89.2141 4.58577C88.891 4.40673 88.3883 4.17397 88.0561 4.02179C87.7599 3.90541 87.2841 3.78903 87.0507 3.75322C86.7544 3.69056 86.2248 3.72636 85.6862 3.81589C85.2104 3.87855 84.6448 3.90541 84.4114 3.87855C84.205 3.85169 83.3701 3.64579 82.5442 3.35037C81.7722 3.08181 80.7668 2.78638 80.3179 2.69686C79.8691 2.6342 78.7739 2.4283 77.8852 2.24925C76.5476 1.98069 76.0808 1.95383 75.4254 1.98069C74.9227 2.00754 74.2674 2.15973 73.6749 2.36563C73.1453 2.51782 72.4002 2.68791 71.9872 2.72372C71.3678 2.75057 71.2421 2.8401 71.1255 3.01914C70.9728 3.2519 70.9728 3.31456 71.2152 4.08445C71.3678 4.61263 71.4486 5.0871 71.4486 5.58842C71.4217 6.00022 71.296 6.59107 71.1524 7.06553C71.0357 7.54 70.8292 8.10399 70.7035 8.33674C70.5868 8.60531 70.3804 8.92759 70.2008 9.16035C69.9674 9.36625 69.7879 9.66167 69.6981 9.77805C69.6712 9.86757 69.6083 10.0466 69.6083 10.1361C69.6083 10.2257 69.6712 10.4047 69.7609 10.4942C69.8507 10.6106 70.0572 10.6733 70.2098 10.6733C70.3893 10.6733 70.7125 10.5837 70.9818 10.4942C71.2511 10.4047 71.8436 10.2257 72.3194 10.1361C72.7952 10.0466 73.4415 9.90338 73.7378 9.77805C74.0609 9.599 74.5367 9.48262 74.7432 9.41996C74.9497 9.3931 75.2459 9.30358 75.3357 9.26777C75.4524 9.20511 75.5691 9.11558 75.605 9.06187C75.6319 8.97235 75.6678 8.82911 75.6678 8.67693C75.6678 8.56055 75.578 8.29198 75.4883 8.14875C75.3716 7.9697 75.192 7.64742 75.0394 7.40571C74.8868 7.17296 74.7701 6.72535 74.7432 6.45678C74.7163 6.22403 74.7163 5.80327 74.806 5.50785C74.8689 5.14976 75.0125 4.89015 75.2818 4.59473C75.5152 4.36197 75.8115 4.20978 76.1705 4.0934C76.4937 3.97703 77.0862 3.91436 77.4722 3.91436C77.8851 3.91436 78.4238 3.97703 78.6302 4.06655C78.8367 4.0934 79.1599 4.27245 79.3753 4.38883C79.5549 4.54101 79.7883 4.83644 79.878 5.04234C79.9947 5.3109 80.0576 5.69585 80.0576 6.08079C80.0576 6.46574 79.9947 6.78801 79.8511 7.08344C79.6985 7.37886 79.4382 7.64742 79.1689 7.85332C78.8996 8.05923 78.4238 8.21141 77.9211 8.32779C77.3555 8.44417 77.0593 8.56055 76.9156 8.71274C76.7989 8.82911 76.6194 9.12454 76.5027 9.36625C76.3501 9.57215 76.1436 9.86757 75.973 9.98395C75.8204 10.0735 75.4434 10.2167 75.1741 10.2794C74.8778 10.342 74.3482 10.5121 73.9622 10.6643C73.5762 10.8165 72.9568 11.0224 72.5438 11.0761C72.1847 11.1388 71.5923 11.2552 71.2691 11.3715C70.9728 11.4611 70.4971 11.5774 70.2637 11.5774C69.9943 11.5774 69.6712 11.5148 69.4647 11.3984C69.2852 11.3357 69.0518 11.1298 68.8992 10.9508C68.7825 10.6822 68.7196 10.4495 68.7196 9.97499C68.7196 9.47367 68.6927 9.26777 68.567 9.17825C68.4503 9.08873 68.0374 9.02606 67.4718 8.97235C66.7626 8.94549 66.4933 8.88283 66.2599 8.73959C66.1073 8.62321 65.9008 8.32779 65.7841 8.12189C65.6315 7.88913 65.5777 7.5579 65.5777 7.02972C65.5777 6.37621 65.6405 6.25983 66.1701 5.16767C66.4933 4.51416 66.8524 3.80693 66.996 3.62789C67.1486 3.39513 67.4449 3.12657 67.7052 2.97438C67.9117 2.858 68.5311 2.6521 69.0966 2.52677C69.6263 2.43725 70.3085 2.23135 70.6048 2.07916C70.928 1.92697 71.5204 1.81059 71.9693 1.75688C72.3822 1.73002 73.0914 1.57784 73.5133 1.39879C73.9263 1.28241 74.6355 1.13023 75.0574 1.07651C75.6229 1.01385 76.1526 1.01385 76.6284 1.04966C77.0413 1.11232 77.6069 1.2287 77.9659 1.28241C78.2891 1.37194 79.124 1.51517 79.8062 1.66736C80.5783 1.78374 81.6734 2.0523 82.7148 2.41039C84.196 2.91171 84.3755 2.93857 84.968 2.91171C85.354 2.88486 85.9465 2.82219 86.2697 2.75953C86.8352 2.69686 87.0956 2.73267 87.6881 2.93857C88.0741 3.05495 88.873 3.38618 89.4116 3.6816C90.1837 4.0934 90.6594 4.27245 91.4315 4.42463C91.9342 4.54101 92.4728 4.60368 92.6164 4.60368C92.7331 4.57682 92.8498 4.45149 92.9396 4.33511C93.0024 4.18293 93.0563 3.80693 93.0563 3.51151C93.0563 3.12657 93.1191 2.74162 93.2628 2.50887C93.3795 2.30296 93.6488 1.85536 93.9181 1.59574C94.1515 1.30032 94.5734 0.915375 94.7799 0.77214C95.0133 0.619953 95.3993 0.449861 95.6417 0.360339C95.911 0.24396 96.4137 0.181295 96.7369 0.181295C97.1857 0.181295 97.5358 0.24396 97.8052 0.387196L97.7872 0.4051Z" fill="#B9D9EB"/>
<path d="M112.644 0.584115C112.797 0.673637 113.057 0.852681 113.147 1.03173C113.264 1.1481 113.416 1.62257 113.506 2.07018C113.596 2.5715 113.829 3.1892 114.072 3.69948C114.458 4.37985 114.484 4.55889 114.484 5.23926C114.484 5.8301 114.422 6.15238 114.251 6.48361C114.098 6.75218 113.892 7.01179 113.748 7.16398C113.542 7.2535 113.246 7.31616 112.922 7.31616C112.653 7.31616 112.177 7.28931 111.917 7.22664C111.441 7.16398 111.325 7.19979 111.208 7.31616C111.055 7.43254 111.091 7.58473 111.298 8.22929C111.531 8.97232 111.531 9.02603 111.36 9.38412C111.244 9.56317 111.001 9.79592 110.858 9.88544C110.741 9.94811 110.355 10.0018 110.086 10.0018C109.7 10.0018 109.52 10.0645 109.341 10.1809C109.134 10.3868 109.107 10.4763 109.161 10.7717C109.188 10.9776 109.368 11.3626 109.52 11.7206C109.637 12.0161 109.843 12.6696 109.969 13.1082C110.086 13.7259 110.122 14.2004 110.086 14.9076C110.059 15.4716 109.906 16.1788 109.816 16.5369C109.727 16.895 109.547 17.3963 109.403 17.6559C109.251 17.9782 108.874 18.6049 108.488 19.0704C108.165 19.518 107.779 20.1357 107.689 20.4311C107.572 20.7266 107.393 21.1115 107.276 21.2905C107.186 21.4964 106.953 21.7919 106.71 21.944C106.531 22.15 106.235 22.329 106.028 22.3917C105.876 22.4543 105.202 22.5707 104.61 22.6244C103.658 22.7766 103.362 22.8303 102.949 23.072C102.653 23.2511 102.177 23.4301 101.737 23.4838C101.378 23.5465 100.732 23.7166 100.346 23.9314C99.9327 24.1105 99.3941 24.2895 99.0979 24.3432C98.8016 24.4059 98.1463 24.6655 97.6436 24.9072C96.9883 25.2295 96.4855 25.3817 95.92 25.4354C95.3006 25.5249 95.0582 25.5249 94.4388 25.4085C94.0258 25.2922 93.4603 25.0505 93.1012 24.8446C92.7421 24.6655 92.3561 24.4328 92.2394 24.397C92.1496 24.3701 91.5302 24.2806 90.8749 24.2448C89.8964 24.1821 89.6271 24.1284 89.2142 23.9225C88.891 23.7166 88.6845 23.5375 88.5588 23.2421C88.4421 22.9736 88.4062 22.7408 88.4691 22.2932C88.5319 21.765 88.496 21.7023 88.2626 21.5502C87.9933 21.3711 87.8497 21.3711 87.1674 21.4875C86.7545 21.5502 86.0991 21.6039 85.8029 21.6665C85.4438 21.6934 85.0578 21.7561 84.9142 21.8456C84.7616 21.9082 84.591 22.0515 84.5012 22.141C84.4384 22.2037 84.2947 22.6155 84.2678 23.0273C84.205 23.4749 84.0614 24.1194 83.9716 24.5312C83.8549 24.8893 83.7023 25.5339 83.6484 25.9457C83.5856 26.5634 83.6215 26.6887 83.7651 26.8588C83.9446 27.011 84.1242 27.0647 84.4474 27.0647C84.6808 27.0647 85.1925 27.0378 85.5156 26.9483C85.9286 26.8857 86.3415 26.8857 86.6378 26.9483C86.934 27.0378 87.2572 27.1542 87.4367 27.2706C87.6162 27.3601 87.8496 27.6555 87.9664 27.8615C88.1728 28.1569 88.2357 28.4523 88.2357 29.0431C88.2357 29.6608 88.1728 29.9294 87.9664 30.3144C87.8496 30.5829 87.5803 30.9679 87.3739 31.1111C87.1943 31.2901 86.7814 31.5229 86.4851 31.6393C86.0722 31.7557 85.6234 31.8183 85.0668 31.8183C84.2948 31.8183 84.0883 31.7915 83.6125 31.5498C83.1098 31.3439 82.9572 31.1917 82.6968 30.7262C82.4006 30.1622 82.3737 30.0458 82.3737 28.9805C82.3737 28.3001 82.4634 27.1184 82.5801 26.2948C82.6699 25.5249 82.8494 24.5491 82.9662 24.1642C83.0829 23.7792 83.2355 23.1884 83.2624 22.8661C83.2893 22.4812 83.3791 22.1231 83.4419 21.953C83.5048 21.8366 83.6484 21.6307 83.8279 21.4785C83.9806 21.3263 84.2409 21.1563 84.3935 21.0936C84.6 21.0309 84.8064 20.8608 84.8962 20.6818C84.986 20.5027 85.0129 20.2968 84.9591 20.0283C84.9321 19.8492 84.7795 19.2584 84.6 18.7302C84.3935 18.202 84.214 17.4859 84.1511 17.1904C84.0883 16.7786 84.0883 16.3937 84.178 16.0087C84.2409 15.5969 84.5012 15.0598 84.7975 14.5316C85.0937 14.1198 85.4797 13.3499 85.7131 12.8755C85.9196 12.401 86.1889 11.8997 86.3056 11.7833C86.4223 11.6938 86.5749 11.5506 86.6647 11.4252C86.7545 11.3626 86.9879 11.2462 87.1674 11.1925C87.3469 11.1029 87.9933 10.9866 88.5588 10.9239C89.3309 10.8075 89.8336 10.6911 90.3094 10.4763C90.6684 10.3241 91.2878 10.1182 91.6739 10.0645C92.0868 10.0018 92.6793 9.85859 92.9755 9.74221C93.2987 9.62583 93.8373 9.2946 94.1336 9.06184C94.4926 8.79328 94.9325 8.56052 95.1749 8.49786C95.4173 8.43519 95.7943 8.40833 96.0008 8.43519C96.2701 8.46205 96.7459 8.64109 97.1588 8.82013C97.6885 9.0887 98.0745 9.17822 98.5772 9.20508C98.9901 9.23193 99.4928 9.32146 99.6724 9.41098C99.8789 9.5005 100.085 9.73326 100.175 9.9123C100.265 10.0913 100.328 10.4136 100.328 10.5927C100.328 10.7717 100.391 11.0403 100.444 11.1208C100.507 11.2372 100.741 11.3536 100.947 11.4163C101.154 11.4789 101.773 11.5326 102.285 11.5326C102.94 11.5326 103.29 11.5058 103.443 11.3536C103.559 11.2909 103.739 11.085 103.766 10.9418C103.793 10.7359 103.676 10.2614 103.443 9.40203C103.236 8.6948 102.994 7.74587 102.94 7.24455C102.85 6.71637 102.85 6.00019 102.877 5.61525C102.904 5.25716 102.994 4.70212 103.057 4.37089C103.146 4.10233 103.263 3.71738 103.353 3.57415C103.443 3.3951 103.622 3.16235 103.766 3.04597C103.883 2.92959 104.125 2.7774 104.269 2.66102C104.448 2.5715 104.978 2.45512 105.454 2.39246C105.956 2.32979 106.432 2.18656 106.549 2.07018C106.665 1.98066 106.845 1.7479 106.962 1.56886C107.051 1.36296 107.258 1.12125 107.375 1.04068C107.608 0.861633 107.788 0.834777 108.766 0.80792C109.538 0.80792 110.104 0.745255 110.57 0.60202C110.93 0.512498 111.343 0.396119 111.459 0.396119C111.576 0.369263 111.845 0.369263 111.989 0.396119C112.168 0.422976 112.465 0.512498 112.644 0.575163V0.584115ZM89.7618 23.1078C89.9682 23.2869 90.3273 23.3137 91.2699 23.3406C92.3382 23.3674 92.5716 23.3406 93.3705 23.1078C94.1156 22.8751 94.4926 22.8393 95.4711 22.8393C96.5933 22.8124 96.7189 22.8393 97.5448 23.1078C97.9937 23.3137 98.5233 23.4659 98.7298 23.4659C98.9093 23.4659 99.4749 23.2869 99.9148 23.0541C100.391 22.8482 101.073 22.6065 101.423 22.5797C101.746 22.517 102.132 22.4275 102.249 22.3111C102.482 22.1589 102.482 22.0783 102.401 21.5412C102.339 21.2189 102.312 20.6818 102.312 20.3864C102.312 19.9119 102.464 19.5628 102.725 18.8824C103.021 18.202 103.2 17.6112 103.344 16.6085C103.461 15.7849 103.703 14.8629 103.91 14.3615C104.062 13.9139 104.206 13.3858 104.206 13.1799C104.206 12.974 104.116 12.7949 103.972 12.6159C103.82 12.4995 103.559 12.41 103.38 12.41C103.2 12.41 102.967 12.4995 102.85 12.589C102.734 12.7681 102.671 13.0635 102.581 13.8334C102.554 14.3974 102.464 14.8987 102.401 14.9524C102.374 15.0151 102.339 15.5432 102.339 16.1609C102.339 16.7786 102.312 17.4948 102.249 17.7902C102.186 18.0857 102.015 18.5601 101.863 18.7929C101.593 19.2047 101.414 19.3569 100.947 19.5628C100.471 19.7955 100.238 19.8313 99.6095 19.8313C99.1607 19.8313 98.658 19.8045 98.4515 19.7418C98.245 19.6791 97.8321 19.5091 97.5897 19.3569C97.2665 19.1778 96.9972 18.9451 96.7638 18.5601C96.4945 18.1125 96.4407 17.9066 96.4407 17.3784C96.4407 16.7876 96.4676 16.6981 96.8536 16.2236C97.0601 15.9282 97.3832 15.6059 97.5987 15.5164C97.7513 15.4269 98.1014 15.3642 98.3079 15.3642C98.5144 15.3642 99.1338 15.4537 99.6455 15.5432C100.211 15.6596 100.714 15.7223 100.893 15.6954C101.1 15.6328 101.163 15.579 101.163 15.4C101.163 15.2836 101.1 15.1046 101.01 15.0419C100.92 14.9792 100.48 14.8897 100.031 14.8629C99.5557 14.836 98.9632 14.7107 98.667 14.6301C98.4336 14.5137 98.0116 14.4511 97.7513 14.4511C97.4281 14.4511 97.2486 14.5137 97.096 14.6838C96.9793 14.8002 96.7728 15.0419 96.683 15.2478C96.5663 15.4 96.324 15.7223 96.1175 15.9282C95.911 16.1341 95.5519 16.34 95.3724 16.4026C95.1659 16.4922 94.4837 16.519 93.8014 16.519C92.6434 16.4922 92.5895 16.4922 92.3471 16.6981C92.2304 16.8503 92.1676 17.1099 92.1676 17.4053C92.1676 17.638 92.1048 18.023 92.015 18.202C91.9252 18.3811 91.7457 18.587 91.629 18.6765C91.5123 18.7929 91.0993 18.8824 90.7672 18.9719C90.3812 18.9988 90.0221 19.0883 89.8785 19.151C89.7618 19.2136 89.6451 19.33 89.6451 19.4195C89.6181 19.5091 89.6181 20.0104 89.6181 20.5117C89.6181 21.0399 89.5553 21.7829 89.5284 22.1947L89.4117 22.9377L89.7348 23.1168L89.7618 23.1078ZM89.9413 17.9066C90.0939 17.9961 90.3004 18.0857 90.5069 18.0857C90.7133 18.0857 90.9198 17.9961 91.0096 17.9066C91.1263 17.7902 91.1891 17.5485 91.1891 17.1994C91.1891 16.8771 91.3058 16.519 91.4225 16.3131C91.5123 16.1072 91.7457 15.9282 92.0778 15.7491C92.5536 15.5432 92.6703 15.5432 93.6757 15.5701C94.6542 15.6328 94.8876 15.5969 95.2198 15.4806C95.4891 15.3642 95.7225 15.0956 95.9918 14.6212C96.1983 14.2362 96.5214 13.8244 96.6741 13.7349C96.8267 13.6454 97.2037 13.5558 97.5359 13.529C97.8321 13.5021 98.2181 13.4663 98.3348 13.4395C98.4515 13.4126 98.6041 13.2604 98.658 13.144C98.7747 12.9919 98.8106 12.7322 98.8106 12.5263C98.8106 12.3473 98.9632 11.846 99.0799 11.4879C99.2325 11.1029 99.3761 10.718 99.3761 10.6285C99.3761 10.5658 99.2864 10.4226 99.2235 10.3331C99.1338 10.2435 98.9542 10.154 98.8106 10.1272C98.6311 10.1003 98.4246 10.1003 98.2809 10.154C98.1283 10.2435 97.8321 10.3868 97.6615 10.5121C97.4551 10.6643 97.1319 10.8075 96.9164 10.9239C96.71 10.9866 96.297 11.0403 95.9649 11.0403C95.5789 11.0403 95.1031 10.9508 94.6273 10.7717C94.2413 10.6553 93.8014 10.5658 93.6219 10.5658C93.5052 10.5658 93.2089 10.6285 92.9666 10.718C92.7601 10.7807 92.2215 10.9239 91.8085 10.9866C91.216 11.0761 91.0096 11.1656 90.857 11.3447C90.6774 11.6132 90.6774 11.6401 90.83 12.3204C90.9467 12.7949 91.0096 13.2336 90.9826 13.6185C90.9198 14.0661 90.8031 14.4153 90.4799 15.0061C90.2465 15.4537 89.9503 16.0714 89.8605 16.3668C89.7438 16.6891 89.681 17.1099 89.7079 17.3158C89.7348 17.5217 89.8605 17.7902 89.9413 17.9066ZM108.201 3.12654C108.38 3.51148 108.613 4.07547 108.703 4.39775C108.793 4.75584 108.793 5.31087 108.766 5.69582C108.739 6.10762 108.587 6.64475 108.497 6.94017C108.407 7.2356 108.344 7.6474 108.344 7.88911C108.344 8.13081 108.407 8.39043 108.461 8.50681C108.551 8.62319 108.847 8.80223 109.08 8.89175C109.35 9.04394 109.673 9.09765 109.852 9.09765C110.086 9.0708 110.265 8.94546 110.328 8.86489C110.418 8.74852 110.418 8.59633 110.265 8.24719C110.175 8.01444 110.086 7.62949 110.086 7.42359C110.086 7.21769 110.149 6.92227 110.238 6.80589C110.328 6.6537 110.508 6.4478 110.687 6.35828C110.84 6.29561 111.19 6.2419 111.432 6.2419C111.675 6.2419 112.141 6.26876 112.501 6.33142C113.066 6.39409 113.12 6.39409 113.299 6.17924C113.389 6.02705 113.452 5.73163 113.452 5.31983C113.452 4.84536 113.362 4.49622 113.183 4.07547C113.003 3.75319 112.824 3.33244 112.77 3.16235C112.68 2.9833 112.59 2.54465 112.563 2.24922C112.501 1.86428 112.384 1.63152 112.24 1.47933C112.15 1.36296 111.917 1.30029 111.711 1.30029C111.504 1.30029 111.028 1.41667 110.669 1.56886C110.014 1.77476 109.843 1.80161 109.071 1.7479C108.326 1.68524 108.156 1.72104 107.976 1.83742C107.886 1.92694 107.824 2.10599 107.824 2.24922C107.824 2.3656 107.976 2.75055 108.21 3.13549L108.201 3.12654Z" fill="#B9D9EB"/>
<path d="M140.527 0.431921C140.76 0.584109 140.976 0.843722 141.092 1.04962C141.245 1.31819 141.326 1.64047 141.326 1.84637C141.326 2.05227 141.263 2.41036 141.146 2.5894C141.056 2.7953 140.877 3.18024 140.697 3.413C140.491 3.68157 140.249 3.94118 140.042 4.0307C139.719 4.18289 139.512 4.18289 138.74 4.14708C138.211 4.08442 137.645 4.12022 137.439 4.17394C137.205 4.26346 137.026 4.37984 136.936 4.55888C136.873 4.67526 136.756 5.17658 136.73 5.62419C136.703 6.03599 136.613 6.57313 136.523 6.77903C136.433 6.98493 136.137 7.22664 135.868 7.43254C135.634 7.58472 135.302 7.81748 135.185 7.93386C135.033 8.1129 134.889 8.43518 134.799 8.93651C134.71 9.34831 134.593 9.79592 134.503 9.97496C134.44 10.1271 134.18 10.333 134.027 10.4226C133.848 10.5389 133.462 10.6285 133.166 10.6285C132.842 10.6553 132.51 10.6911 132.394 10.718C132.304 10.7448 132.187 10.8702 132.187 10.9507C132.16 11.0403 132.16 11.2462 132.214 11.3625C132.277 11.4521 132.421 11.5685 132.6 11.5953C132.717 11.6222 133.049 11.6222 133.309 11.5953L134.494 11.4789C135.15 11.4163 135.239 11.4521 135.796 11.7475C136.326 12.0161 136.415 12.0161 136.595 11.9265C136.712 11.837 136.801 11.658 136.864 11.5684C136.864 11.4521 136.712 11.1208 136.568 10.7986C136.424 10.4763 136.245 10.0555 136.182 9.88544C136.155 9.67954 136.182 9.35726 136.272 9.11555C136.335 8.90965 136.595 8.34566 136.864 7.907C137.133 7.4952 137.43 6.95807 137.52 6.81484C137.582 6.60893 137.789 6.34037 137.932 6.16133C138.112 5.95542 138.381 5.77638 138.552 5.68686C138.731 5.62419 139.144 5.57048 139.53 5.57048C139.854 5.57048 140.302 5.50781 140.482 5.41829C140.688 5.35563 140.841 5.21239 140.895 5.09601C140.958 4.97964 140.985 4.71107 140.985 4.59469C140.985 4.4425 141.101 4.09337 141.254 3.8248C141.407 3.52938 141.613 3.23396 141.757 3.08177C141.963 2.92958 142.735 2.49093 143.561 2.07912C144.719 1.48828 145.159 1.33609 145.455 1.33609C145.724 1.33609 146.021 1.39876 146.137 1.48828C146.317 1.5778 146.586 1.81056 146.757 1.96275C147.08 2.1955 147.233 2.23131 148.148 2.28503C148.741 2.34769 149.243 2.46407 149.513 2.55359C149.746 2.66997 149.989 2.87587 150.168 3.17129C150.375 3.52938 150.402 3.73528 150.402 4.32613C150.402 4.91697 150.339 5.14973 150.132 5.59734C149.98 5.89276 149.656 6.34037 149.387 6.54627C149.091 6.81484 148.705 7.07445 148.409 7.19978C148.139 7.31616 147.61 7.55787 147.224 7.61158C146.865 7.72796 146.425 7.84434 146.308 7.93386C146.128 8.05024 145.922 8.3188 145.805 8.55156C145.689 8.84698 145.419 9.11555 145.303 9.25878C145.186 9.37516 144.979 9.49154 144.8 9.55421C144.62 9.61687 144.324 9.67058 144.028 9.67058C143.794 9.67058 143.373 9.58106 143.139 9.49154C142.816 9.33935 142.663 9.16926 142.547 8.9007C142.394 8.66794 142.394 8.39937 142.457 7.92491C142.484 7.62949 142.609 7.12816 142.726 6.80588C142.816 6.51046 143.085 5.98228 143.256 5.68686C143.462 5.32877 143.759 4.97964 143.911 4.80059C144.091 4.68421 144.441 4.53203 144.656 4.47831C144.89 4.41565 145.222 4.32613 145.401 4.20975C145.608 4.14708 145.814 3.94118 145.904 3.79795C145.994 3.59205 146.057 3.26977 146.084 3.05491C146.084 2.75949 146.021 2.55359 145.931 2.46407C145.841 2.34769 145.635 2.25817 145.455 2.25817C145.303 2.25817 144.979 2.41036 144.71 2.52673L143.292 3.23396C142.493 3.64576 142.223 3.79795 142.08 4.05756C141.927 4.37984 141.927 4.55888 141.963 5.56153C142.026 6.38513 141.99 6.92226 141.873 7.60263C141.757 8.22033 141.577 8.78432 141.371 9.25878C141.164 9.61687 140.868 10.1451 140.688 10.3778C140.482 10.6464 140.213 10.9418 140.006 11.0313C139.773 11.1835 139.297 11.2999 138.965 11.3536C138.579 11.3805 138.22 11.47 138.139 11.5058C138.022 11.5326 137.816 11.8281 137.663 12.0966C137.484 12.3921 137.25 12.6875 137.133 12.777C137.017 12.8397 136.747 12.8934 136.541 12.8934C136.335 12.8934 135.886 12.777 135.5 12.598C134.997 12.3652 134.79 12.3294 134.674 12.3921C134.584 12.4547 134.467 12.5711 134.44 12.6248C134.413 12.7143 134.234 13.0993 134.117 13.4842C134.001 13.896 133.911 14.3436 133.938 14.4332C133.938 14.5227 134.001 14.6659 134.054 14.7286C134.081 14.7554 134.584 14.8808 135.096 14.9076C135.805 14.9345 136.101 14.9971 136.37 15.1404C136.577 15.2568 136.783 15.5253 136.936 15.7044C137.089 15.9371 137.116 16.2057 137.116 16.8592C137.116 17.5127 137.089 17.7723 136.909 18.1573C136.756 18.4527 136.379 18.9272 135.868 19.4016C135.159 20.0551 135.069 20.1984 134.826 20.8161C134.737 21.201 134.53 21.6397 134.44 21.7919C134.288 21.944 134.027 22.1499 133.758 22.2932C133.372 22.4454 133.193 22.4722 132.663 22.4096C132.16 22.3827 131.954 22.3827 131.747 22.4991C131.514 22.6513 131.514 22.6781 131.568 23.5375C131.631 24.191 131.595 24.4507 131.478 24.7461C131.415 24.952 131.065 25.3638 130.796 25.6592C130.473 25.9815 130.176 26.3664 130.087 26.5186C129.97 26.6977 129.79 27.378 129.674 28.0852C129.521 28.7656 129.288 29.6519 129.171 30.1264C129.018 30.6008 128.848 31.2185 128.695 31.5139C128.578 31.8362 128.246 32.3734 127.986 32.6688C127.717 32.9911 127.456 33.3491 127.42 33.4924C127.358 33.6714 127.42 33.7878 127.6 33.94C127.69 34.0564 127.869 34.1459 127.986 34.1459C128.076 34.1459 128.399 34.0832 128.668 33.9668C128.937 33.8773 129.494 33.6088 129.916 33.3133C130.508 32.9552 130.832 32.8389 131.218 32.812C131.541 32.7493 131.9 32.6956 132.079 32.633C132.196 32.5703 132.349 32.4271 132.376 32.3107C132.403 32.1943 132.376 31.8094 132.286 31.4513C132.196 31.129 132.133 30.6814 132.133 30.5382C132.133 30.3949 132.25 29.8578 132.367 29.3833C132.546 28.882 132.726 28.0852 132.842 27.5213C132.932 27.0199 133.076 26.4559 133.202 26.3127C133.264 26.1605 133.435 25.9009 133.615 25.7487C133.767 25.6323 134.09 25.4533 134.324 25.3638C134.647 25.2116 135.329 25.1579 136.46 25.131C137.852 25.0684 138.238 25.1042 138.687 25.2205C139.099 25.3727 139.369 25.516 139.638 25.7845C139.818 26.0173 140.051 26.3485 140.114 26.5276C140.177 26.7603 140.204 27.1453 140.204 27.4407C140.204 27.6734 140.141 28.1211 140.087 28.3538C139.997 28.5866 139.791 28.882 139.674 29.0073C139.557 29.1595 139.315 29.3296 139.171 29.3923C138.992 29.4818 138.516 29.5713 138.076 29.5982C137.511 29.625 137.25 29.7145 137.125 29.8309C137.062 29.9204 136.945 30.189 136.945 30.4218C136.918 30.6545 136.828 31.0126 136.792 31.1917C136.765 31.3438 136.613 31.6661 136.469 31.8452C136.263 32.0511 135.966 32.2301 135.643 32.3465C135.347 32.4092 134.898 32.4629 134.665 32.4629C134.431 32.4629 134.045 32.5255 133.866 32.5793C133.659 32.6061 133.39 32.7583 133.246 32.9373C133.094 33.0537 132.887 33.2596 132.744 33.3491C132.591 33.5013 132.178 33.5819 131.738 33.6446C131.146 33.7341 130.912 33.7967 130.401 34.1459C130.078 34.3518 129.575 34.5935 129.306 34.7367C129.072 34.8263 128.623 34.9426 128.327 34.9695C127.941 35.0322 127.708 34.9963 127.349 34.88C127.115 34.7904 126.819 34.5845 126.756 34.4682C126.666 34.3518 126.55 33.9668 126.523 33.6446C126.46 33.2596 126.37 32.9911 126.226 32.9373C126.164 32.8478 125.724 32.7583 125.275 32.7314C124.682 32.7046 124.359 32.6151 124.18 32.4987C124.027 32.4092 123.821 32.2033 123.677 31.9974C123.587 31.8183 123.444 31.4334 123.408 31.1738C123.381 30.8515 123.408 30.4039 123.497 29.9921C123.587 29.5803 123.767 29.0163 123.91 28.7209C124.063 28.3986 124.503 27.6287 124.862 26.9752C125.338 26.2321 125.813 25.6144 126.226 25.1758C126.729 24.6745 126.998 24.3522 127.295 23.7255C127.501 23.2242 127.797 22.7766 128.004 22.6334C128.183 22.4812 128.507 22.3379 128.749 22.2753C128.982 22.1858 129.341 22.1589 129.575 22.1858C129.754 22.2126 130.078 22.1858 130.23 22.1231C130.383 22.0962 130.553 21.944 130.589 21.8545C130.616 21.7381 130.616 21.4069 130.589 21.1473C130.562 20.825 130.562 20.4669 130.706 20.1715C130.769 19.9029 131.002 19.4285 131.209 19.0793C131.478 18.7571 131.711 18.2826 131.801 18.1036C131.864 17.8708 132.097 17.1904 132.214 16.5369C132.331 15.9192 132.573 15.203 132.663 14.9703C132.78 14.7375 132.869 14.4421 132.869 14.2899C132.869 14.1109 132.78 13.9318 132.6 13.8155C132.421 13.6991 132.214 13.6096 132.035 13.6096C131.855 13.6096 131.649 13.6722 131.505 13.7259C131.388 13.7886 131.209 13.9318 131.146 14.084C131.083 14.2362 130.993 14.5853 130.939 14.9076C130.877 15.203 130.733 15.6148 130.553 15.8207L129.602 17.2352C129.189 17.7992 128.713 18.4795 128.507 18.775C128.3 19.0435 128.004 19.518 127.851 19.8403C127.699 20.1626 127.465 20.637 127.375 20.8787C127.259 21.1742 127.016 21.4696 126.846 21.6755C126.666 21.8277 126.397 21.9978 126.164 22.0873C125.984 22.1768 125.418 22.2932 124.916 22.32C124.44 22.3469 123.91 22.4364 123.731 22.4991C123.614 22.5617 123.372 22.7945 123.228 23.0273C123.049 23.2332 122.725 23.5912 122.402 23.7971C122.133 24.003 121.576 24.3611 121.127 24.5402C120.741 24.7729 120.266 25.0146 120.086 25.1042C119.907 25.1937 119.494 25.3727 119.17 25.4623C118.847 25.5249 118.372 25.6144 118.129 25.6144C117.887 25.6144 117.267 25.7308 116.765 25.9099C116.199 26.1158 115.669 26.2053 115.346 26.2053C115.023 26.2053 114.664 26.1426 114.484 26.0531C114.305 25.9367 114.072 25.7308 113.982 25.5786C113.865 25.3727 113.775 25.0773 113.775 24.755C113.775 24.3074 113.712 24.1642 113.506 23.9583C113.326 23.7524 113.183 23.7524 112.527 23.7524C112.052 23.7524 111.666 23.6897 111.405 23.5733C111.172 23.4212 110.876 23.2153 110.75 23.0452C110.597 22.893 110.454 22.5438 110.391 22.3021C110.301 22.0336 110.238 21.5591 110.238 21.2368C110.238 20.8787 110.301 20.4669 110.355 20.261C110.418 20.082 110.562 19.8134 110.741 19.6075C110.858 19.4285 111.19 19.1957 111.45 19.0435C111.836 18.8645 112.07 18.8645 113.91 18.8645C115.894 18.8645 115.957 18.8645 116.397 19.0972C116.693 19.2763 116.899 19.4822 117.079 19.8045C117.196 20.0372 117.285 20.4222 117.285 20.6907C117.285 20.9593 117.222 21.3084 117.169 21.4875C117.079 21.6934 116.81 21.9619 116.639 22.1052C116.432 22.2842 116.073 22.5528 115.894 22.696C115.66 22.9019 115.328 23.2869 115.122 23.645C114.915 23.9672 114.736 24.4148 114.709 24.5581C114.646 24.8267 114.709 24.943 114.826 25.0863C114.915 25.2026 115.149 25.2653 115.328 25.2653C115.508 25.2653 115.984 25.1489 116.37 25.0325C116.729 24.9162 117.528 24.7371 118.12 24.6207C119.126 24.5044 119.278 24.4686 120.49 23.8509C121.199 23.4928 121.971 23.0541 122.151 22.8751C122.357 22.6692 122.6 22.4006 122.68 22.1947C122.797 21.9619 122.833 21.6934 122.77 20.834C122.743 19.9746 122.743 19.6791 122.887 19.3569C123.004 19.0346 123.273 18.7392 123.713 18.3542C124.216 17.9066 124.458 17.6112 124.691 17.1099C124.844 16.7876 125.221 16.1609 125.463 15.7491C125.76 15.3015 126.289 14.3615 126.675 13.5916C127.088 12.768 127.564 12.025 127.797 11.7923C128.067 11.47 128.507 11.2014 129.162 10.8791C129.934 10.521 130.113 10.4047 130.203 10.1361C130.266 9.95706 130.32 9.57211 130.356 9.33935C130.383 9.04393 130.473 8.74851 130.535 8.65899C130.598 8.5068 130.859 8.21138 131.128 7.91596C131.514 7.53101 131.631 7.35197 131.631 7.05654C131.631 6.8775 131.541 6.64474 131.451 6.55522C131.361 6.4657 131.128 6.40303 130.796 6.40303C130.526 6.40303 130.14 6.34037 129.934 6.28666C129.727 6.19713 129.341 5.92857 129.108 5.75848C128.875 5.57943 128.605 5.25715 128.516 5.10497L128.309 4.39774C128.246 4.12918 128.076 3.83376 127.923 3.69052C127.806 3.51148 127.447 3.24291 127.214 3.09968C126.945 2.89377 126.621 2.7774 126.415 2.7774C126.208 2.7774 125.822 2.89377 125.463 3.04596C125.14 3.16234 124.664 3.27872 124.422 3.27872C124.153 3.27872 123.623 3.16234 123.21 3.04596C122.797 2.89377 122.259 2.7774 122.052 2.7774C121.756 2.7774 121.549 2.84006 121.433 2.95644C121.343 3.10863 121.226 3.27872 121.226 3.36824C121.226 3.48462 121.316 3.86956 121.406 4.19184C121.496 4.60364 121.558 5.05125 121.496 5.6421C121.469 6.29561 121.343 6.82379 120.993 7.82643C120.58 9.09764 120.49 9.27669 119.951 9.84068C119.592 10.2525 119.386 10.5479 119.386 10.7269C119.386 10.8791 119.503 11.1119 119.619 11.2014C119.772 11.3178 119.889 11.3536 120.212 11.3178C120.418 11.2909 120.894 11.1119 121.217 10.8702C121.81 10.5479 121.962 10.5121 122.815 10.4852C123.677 10.3957 123.731 10.3957 123.883 10.1898C123.946 10.0108 123.946 9.71535 123.856 9.1245C123.74 8.47099 123.74 8.21138 123.856 7.82643C123.919 7.59368 124.036 7.23559 124.153 7.0834C124.269 6.93121 124.539 6.72531 124.718 6.60893C124.925 6.51941 125.67 6.28666 126.316 6.13447C127.088 5.90171 127.618 5.81219 127.824 5.8659C128.004 5.89276 128.48 6.16132 128.92 6.39408C129.332 6.66265 129.745 7.01178 129.835 7.10131C129.925 7.21768 130.015 7.48625 130.015 7.66529C130.015 7.87119 129.862 8.25614 129.745 8.5247C129.593 8.82013 129.216 9.32145 128.884 9.67954C128.525 10.0376 128.058 10.3868 127.815 10.5389C127.402 10.718 127.16 10.7717 126.128 10.7717C124.943 10.7986 124.853 10.7986 124.234 11.1298C123.668 11.3625 123.488 11.4252 122.869 11.3984C122.214 11.3984 122.097 11.4252 121.388 11.8102C120.768 12.1056 120.472 12.1951 120.113 12.1951C119.817 12.1951 119.458 12.1324 119.251 12.0787C119.072 11.9892 118.838 11.8102 118.686 11.6938C118.506 11.461 118.479 11.282 118.479 10.7448C118.479 10.2077 118.416 10.0018 118.3 9.85858C118.12 9.65268 117.941 9.62582 117.258 9.56316C116.693 9.50049 116.37 9.41097 116.163 9.29459C116.011 9.20507 115.804 8.93651 115.714 8.76641C115.535 8.47099 115.481 8.26509 115.481 7.4952C115.481 6.8775 115.544 6.40303 115.687 6.01809C115.777 5.74952 116.073 5.06916 116.37 4.51412C116.639 3.95013 117.052 3.30558 117.231 3.12653C117.438 2.92063 117.797 2.67892 118.003 2.59835C118.273 2.50883 118.829 2.39245 119.278 2.30293C119.754 2.24026 120.526 2.12389 121.002 2.03436L122.25 1.85532C122.456 1.82846 122.842 1.62256 123.201 1.354C123.524 1.08543 123.946 0.852674 124.153 0.825818C124.359 0.763152 124.718 0.736296 124.898 0.798961C125.131 0.825818 125.58 1.03172 125.993 1.32714C126.406 1.5599 126.998 1.91799 127.331 2.09703C127.663 2.27607 128.156 2.66102 128.453 2.92063C128.902 3.36824 129.018 3.53833 129.198 4.12918C129.35 4.6305 129.521 4.98859 129.701 5.13182C129.88 5.28401 130.149 5.42725 130.32 5.48991C130.473 5.55258 130.706 5.51677 130.823 5.40039C130.975 5.33772 131.209 5.16763 131.442 5.01544C131.622 4.89907 132.268 4.54098 132.833 4.30822C133.426 4.03966 134.081 3.78004 134.315 3.71738C134.638 3.62785 135.114 3.53833 135.679 3.56519C136.388 3.62785 136.595 3.56519 136.721 3.413C136.873 3.32348 136.927 3.02806 136.99 2.46407C137.017 1.93589 137.107 1.48828 137.259 1.21971C137.376 0.986957 137.618 0.718392 137.789 0.602013C137.941 0.449826 138.265 0.306591 138.471 0.243925C138.678 0.154403 139.09 0.127547 139.512 0.154403C139.988 0.18126 140.284 0.243925 140.518 0.38716L140.527 0.431921Z" fill="#B9D9EB"/>
<path d="M176.399 0.637864C176.632 0.700529 176.929 0.870621 177.144 1.04966C177.297 1.22871 177.503 1.49727 177.557 1.66737C177.674 1.87327 177.763 2.28507 177.79 2.6163C177.817 3.06391 177.79 3.38619 177.674 3.77113C177.611 4.06655 177.404 4.42464 177.315 4.56788C177.198 4.72006 176.902 4.92596 176.695 5.04234C176.372 5.22139 176.103 5.24824 175.331 5.24824C174.505 5.22139 174.325 5.24824 174.119 5.42729C173.966 5.54367 173.796 5.78537 173.733 6.01813C173.706 6.25089 173.616 6.54631 173.553 6.67164C173.49 6.85069 173.194 7.26249 172.898 7.7101C172.629 8.15771 171.946 9.21406 171.48 10.0735C170.977 10.8971 170.295 12.0251 169.909 12.4995C169.585 13.0008 169.083 13.7976 168.84 14.3347C168.607 14.836 168.158 15.6059 167.889 16.0804C167.655 16.4922 167.117 17.2352 166.731 17.7366C166.228 18.3901 165.959 18.8914 165.662 19.5718C165.393 20.2521 165.214 20.6371 164.89 20.9056C164.684 21.1742 164.325 21.3801 164.118 21.4338C163.912 21.4965 163.436 21.5233 163.077 21.5233C162.754 21.5233 162.305 21.586 162.126 21.7024C161.919 21.765 161.713 21.9351 161.623 22.0873C161.533 22.2664 161.327 22.4991 161.174 22.6513C161.057 22.7677 160.644 23.0363 160.285 23.1526C159.899 23.3048 159.334 23.6002 159.01 23.8061C158.651 24.012 158.185 24.3075 157.942 24.4238C157.673 24.5402 157.233 24.6924 156.937 24.7819C156.667 24.8446 156.192 25.0505 155.958 25.1937C155.662 25.3996 155.276 25.6413 155.043 25.7577C154.773 25.8741 154.423 25.9905 154.064 25.9905C153.615 25.9905 153.355 25.8741 152.61 25.5787C152.134 25.3728 151.569 25.1669 151.362 25.1042C151.183 25.0774 150.913 24.9878 150.743 24.8983C150.59 24.8356 150.384 24.6297 150.294 24.4507C150.141 24.2179 150.087 23.9494 150.087 23.4481C150.087 22.9467 150.06 22.6782 149.908 22.5349C149.755 22.3559 149.612 22.329 148.84 22.2664C148.364 22.2037 147.888 22.1142 147.771 22.0605C147.655 21.9978 147.448 21.8546 147.322 21.7024C147.17 21.5233 146.999 21.2548 146.936 21.0847C146.874 20.8788 146.82 20.467 146.82 20.082C146.82 19.6971 146.909 19.2226 146.999 18.9003C147.152 18.6049 147.412 17.9514 147.655 17.4501C147.978 16.8861 148.274 16.4474 148.57 16.2057C148.777 15.973 149.163 15.7581 149.369 15.7044C149.603 15.6417 150.114 15.5522 150.581 15.4985C151.03 15.4358 151.622 15.2926 151.856 15.2031C152.152 15.0867 152.628 14.9703 152.978 14.9077C153.391 14.8808 153.66 14.7286 153.777 14.5854C153.929 14.469 154.136 14.0572 154.28 13.6991C154.432 13.2246 154.666 12.8755 154.845 12.7233C154.998 12.6069 155.321 12.4279 155.554 12.3652C155.788 12.2757 156.237 12.2757 156.56 12.2757C156.883 12.3384 157.332 12.4548 157.538 12.5443C157.772 12.6607 158.014 12.8128 158.104 12.9561C158.194 13.0456 158.4 13.3142 158.517 13.6096C158.669 13.9945 158.723 14.29 158.723 14.9703C158.723 15.7134 158.66 15.9193 158.454 16.3848C158.337 16.7071 158.068 17.0025 157.924 17.1278C157.772 17.2173 157.475 17.3964 157.305 17.4501C157.125 17.5128 156.802 17.5396 156.623 17.5396C156.416 17.5396 156.003 17.4769 155.707 17.3874C155.411 17.3248 154.962 17.1189 154.728 17.0025C154.459 16.8861 154.019 16.5549 153.687 16.3221C153.238 15.9998 153.032 15.8745 152.798 15.8745C152.502 15.8745 152.439 15.9372 152.35 16.1431C152.287 16.3221 152.323 16.6175 152.502 17.3516C152.709 18.032 152.771 18.3901 152.709 18.7661C152.682 19.0346 152.475 19.8314 152.26 20.4849C152.053 21.1652 151.811 21.8456 151.694 22.0247C151.604 22.2037 151.425 22.526 151.281 22.705C151.138 22.8841 151.012 23.2063 150.985 23.4122C150.958 23.7345 150.985 23.8867 151.102 24.0031C151.191 24.1195 151.425 24.1821 151.631 24.1821C151.865 24.1821 152.134 24.0658 152.547 23.7345C152.87 23.5286 153.346 23.2601 153.552 23.2063C153.759 23.1437 154.145 23.1168 154.378 23.1437C154.648 23.1705 155.177 23.3496 155.59 23.5555C156.039 23.7345 156.479 23.8778 156.569 23.8778C156.659 23.8778 156.928 23.8151 157.161 23.7614C157.368 23.6719 157.933 23.3764 158.373 23.1079C158.786 22.8124 159.414 22.4902 159.791 22.3648C160.177 22.1858 160.501 21.9799 160.617 21.8635C160.824 21.6308 160.851 21.5054 160.77 20.7445C160.743 20.27 160.68 19.706 160.743 19.4464C160.743 19.2137 160.833 18.8287 160.896 18.6228C160.985 18.3901 161.282 18.032 161.695 17.6739C162.224 17.1726 162.404 16.9667 162.736 16.2863C162.942 15.8118 163.355 15.0778 163.652 14.6033C163.948 14.1288 164.477 13.3052 164.81 12.7144L165.932 10.7001C166.201 10.1988 166.614 9.51844 166.794 9.22302C167 8.83807 167.323 8.42627 167.709 8.13085C168.032 7.86228 168.391 7.51315 168.508 7.27144C168.625 7.0924 168.742 6.79697 168.742 6.59107C168.742 6.41203 168.679 6.20613 168.625 6.14346C168.535 6.05394 168.391 5.99128 168.239 5.99128C168.086 5.99128 167.763 6.10765 167.494 6.22403C167.108 6.37622 166.991 6.40308 166.632 6.31355C166.452 6.25089 166.156 6.04499 166.013 5.86594C165.896 5.71376 165.6 5.2751 165.42 4.95282C165.214 4.47835 164.917 4.12922 164.504 3.77113C164.002 3.35933 163.885 3.18029 163.732 2.73268C163.643 2.46411 163.499 2.14183 163.409 2.02545C163.257 1.93593 163.023 1.87327 162.817 1.87327C162.637 1.87327 162.287 1.96279 162.045 2.07917C161.722 2.23135 161.452 2.28507 160.833 2.28507C160.357 2.28507 159.765 2.37459 159.531 2.43725C159.235 2.52678 158.786 2.58944 158.49 2.58944C158.077 2.58944 157.924 2.65211 157.781 2.76849C157.664 2.88486 157.547 3.03705 157.547 3.12657C157.547 3.18924 157.7 3.51152 157.781 3.86961C157.897 4.25455 157.987 4.72902 157.987 5.14082C157.987 5.61528 157.924 5.93756 157.691 6.52841C157.511 6.94021 157.278 7.47734 157.161 7.7101C157.071 7.916 156.748 8.3278 156.542 8.59636C156.219 8.91864 156.093 9.12454 156.093 9.36625C156.093 9.5453 156.12 9.72434 156.183 9.84072C156.246 9.90338 156.452 9.9571 156.632 9.9571C156.838 9.9571 157.134 9.84072 157.493 9.59901C157.969 9.30359 158.059 9.30359 158.831 9.30359C159.54 9.30359 159.693 9.27673 159.809 9.09769C159.872 9.00817 159.962 8.62322 159.989 8.23828C160.016 7.85333 160.169 7.37887 160.285 7.14611C160.375 6.94021 160.788 6.46574 161.147 6.10765C161.533 5.72271 162.063 5.31091 162.359 5.19453C162.655 5.04234 163.104 4.92596 163.4 4.87225C163.786 4.80959 164.02 4.87225 164.289 4.98863C164.558 5.10501 164.819 5.34672 165.151 5.75852C165.384 6.11661 165.653 6.52841 165.77 6.67164C165.86 6.9044 165.923 7.23563 165.923 7.62057C165.923 7.916 165.896 8.39046 165.806 8.62322C165.779 8.82912 165.573 9.1514 165.447 9.33044C165.294 9.48263 165.034 9.68853 164.855 9.77805C164.675 9.89443 164.325 9.9571 163.939 9.9571C163.526 9.9571 163.167 9.89443 162.987 9.77805C162.835 9.68853 162.458 9.45577 162.188 9.21406C161.829 8.85598 161.623 8.7396 161.416 8.7396C161.237 8.7396 161.03 8.76646 160.967 8.82912C160.905 8.85598 160.788 9.09769 160.698 9.41997C160.608 9.65272 160.465 9.98395 160.312 10.0735C160.195 10.163 159.836 10.1899 159.217 10.1899C158.391 10.1899 158.265 10.2167 157.646 10.5479C157.233 10.7538 156.82 10.8702 156.605 10.8702C156.425 10.8702 156.102 10.8076 155.922 10.718C155.716 10.6285 155.474 10.4495 155.393 10.3062C155.312 10.163 155.186 9.77805 155.159 9.48263C155.097 9.12454 155.007 8.80226 154.926 8.71274C154.836 8.59636 154.657 8.5337 154.244 8.5337C153.947 8.5337 153.499 8.47103 153.292 8.41732C153.059 8.39046 152.789 8.23828 152.673 8.1219C152.52 8.03238 152.376 7.82648 152.35 7.73695C152.287 7.64743 152.197 7.37887 152.17 7.11925C152.107 6.85069 152.107 6.43889 152.17 6.17032C152.233 5.8749 152.493 5.16767 152.825 4.57683C153.095 3.95913 153.508 3.27876 153.714 3.07286C153.921 2.8401 154.244 2.59839 154.459 2.50887C154.728 2.39249 155.411 2.21345 156.03 2.09707C156.65 2.00755 157.332 1.86431 157.511 1.82851C157.691 1.76584 158.041 1.71213 158.31 1.71213C158.544 1.71213 158.993 1.6226 159.226 1.55994C159.522 1.47042 159.935 1.29137 160.231 1.08547C160.501 0.933286 160.887 0.790051 161.093 0.763194C161.3 0.736338 161.955 0.790051 162.485 0.852716C163.05 0.942238 163.643 1.08547 163.786 1.175C163.966 1.26452 164.145 1.40775 164.235 1.53308C164.325 1.64946 164.442 1.98069 164.558 2.27611C164.711 2.66106 164.855 2.86696 165.303 3.27876C165.752 3.63685 165.959 3.93227 166.129 4.37093C166.282 4.69321 166.515 5.07815 166.632 5.19453C166.722 5.31091 166.901 5.40043 167.045 5.40043C167.135 5.40043 167.368 5.33777 167.521 5.22139C167.7 5.13186 167.97 4.8633 168.14 4.56788C168.32 4.33512 168.616 4.00389 168.76 3.88751C168.993 3.77113 169.469 3.56523 169.855 3.50257C170.268 3.41304 170.654 3.29666 170.833 3.20714C170.923 3.14448 171.156 2.79534 171.336 2.46411C171.515 2.10602 171.722 1.75689 171.839 1.6047C171.991 1.48832 172.225 1.30928 172.404 1.21976C172.611 1.13023 173.086 0.924334 173.499 0.807955C173.912 0.691577 174.505 0.575198 174.774 0.539389C175.097 0.512533 175.456 0.449867 175.6 0.512533L176.345 0.628911L176.399 0.637864Z" fill="#B9D9EB"/>
</svg>
